<mxfile host="65bd71144e" pages="4">
    <diagram name="UCs for Online-Guest" id="UUYAxm8IGaj5LylT6_vU">
        <mxGraphModel dx="1838" dy="1878" grid="1" gridSize="10" guides="1" tooltips="1" connect="1" arrows="1" fold="1" page="1" pageScale="1" pageWidth="827" pageHeight="1169" math="0" shadow="0">
            <root>
                <mxCell id="0"/>
                <mxCell id="1" parent="0"/>
                <mxCell id="2" value="" style="rounded=0;whiteSpace=wrap;html=1;fillColor=#dae8fc;strokeColor=#6c8ebf;align=left;" parent="1" vertex="1">
                    <mxGeometry x="380" y="-50" width="485" height="610" as="geometry"/>
                </mxCell>
                <mxCell id="gb1_gQOQjEjK0gqlClVg-5" value="Guest" style="shape=umlActor;verticalLabelPosition=bottom;verticalAlign=top;html=1;outlineConnect=0;" parent="1" vertex="1">
                    <mxGeometry x="270" y="110" width="30" height="60" as="geometry"/>
                </mxCell>
                <mxCell id="gb1_gQOQjEjK0gqlClVg-71" value="View Available Rooms" style="ellipse;whiteSpace=wrap;html=1;" parent="1" vertex="1">
                    <mxGeometry x="540" y="20" width="240" height="70" as="geometry"/>
                </mxCell>
                <mxCell id="gb1_gQOQjEjK0gqlClVg-74" value="" style="endArrow=none;html=1;rounded=0;" parent="1" target="gb1_gQOQjEjK0gqlClVg-71" edge="1">
                    <mxGeometry width="50" height="50" relative="1" as="geometry">
                        <mxPoint x="320" y="140" as="sourcePoint"/>
                        <mxPoint x="370" y="90" as="targetPoint"/>
                    </mxGeometry>
                </mxCell>
                <mxCell id="gb1_gQOQjEjK0gqlClVg-75" value="" style="endArrow=none;html=1;rounded=0;" parent="1" target="gb1_gQOQjEjK0gqlClVg-76" edge="1">
                    <mxGeometry width="50" height="50" relative="1" as="geometry">
                        <mxPoint x="320" y="140" as="sourcePoint"/>
                        <mxPoint x="450" y="410" as="targetPoint"/>
                    </mxGeometry>
                </mxCell>
                <mxCell id="gb1_gQOQjEjK0gqlClVg-76" value="&#xa;View Room Details&#xa;&#xa;" style="ellipse;whiteSpace=wrap;html=1;" parent="1" vertex="1">
                    <mxGeometry x="580" y="130" width="160" height="70" as="geometry"/>
                </mxCell>
                <mxCell id="gb1_gQOQjEjK0gqlClVg-77" value="Register Account" style="ellipse;whiteSpace=wrap;html=1;" parent="1" vertex="1">
                    <mxGeometry x="490" y="230" width="240" height="70" as="geometry"/>
                </mxCell>
                <mxCell id="gb1_gQOQjEjK0gqlClVg-78" value="View Service" style="ellipse;whiteSpace=wrap;html=1;" parent="1" vertex="1">
                    <mxGeometry x="520" y="320" width="140" height="70" as="geometry"/>
                </mxCell>
                <mxCell id="gb1_gQOQjEjK0gqlClVg-81" value="Register" style="ellipse;whiteSpace=wrap;html=1;" parent="1" vertex="1">
                    <mxGeometry x="470" y="430" width="140" height="70" as="geometry"/>
                </mxCell>
                <mxCell id="gb1_gQOQjEjK0gqlClVg-85" value="" style="endArrow=none;html=1;rounded=0;" parent="1" target="gb1_gQOQjEjK0gqlClVg-77" edge="1">
                    <mxGeometry width="50" height="50" relative="1" as="geometry">
                        <mxPoint x="320" y="140" as="sourcePoint"/>
                        <mxPoint x="450" y="640" as="targetPoint"/>
                    </mxGeometry>
                </mxCell>
                <mxCell id="gb1_gQOQjEjK0gqlClVg-86" value="" style="endArrow=none;html=1;rounded=0;" parent="1" target="gb1_gQOQjEjK0gqlClVg-78" edge="1">
                    <mxGeometry width="50" height="50" relative="1" as="geometry">
                        <mxPoint x="320" y="140" as="sourcePoint"/>
                        <mxPoint x="450" y="640" as="targetPoint"/>
                    </mxGeometry>
                </mxCell>
                <mxCell id="gb1_gQOQjEjK0gqlClVg-89" value="" style="endArrow=none;html=1;rounded=0;" parent="1" target="gb1_gQOQjEjK0gqlClVg-81" edge="1">
                    <mxGeometry width="50" height="50" relative="1" as="geometry">
                        <mxPoint x="320" y="140" as="sourcePoint"/>
                        <mxPoint x="450" y="640" as="targetPoint"/>
                    </mxGeometry>
                </mxCell>
                <mxCell id="gb1_gQOQjEjK0gqlClVg-93" value="&amp;lt;&amp;lt;Include&amp;gt;&amp;gt;" style="endArrow=open;endSize=12;dashed=1;html=1;rounded=0;" parent="1" source="gb1_gQOQjEjK0gqlClVg-77" target="gb1_gQOQjEjK0gqlClVg-94" edge="1">
                    <mxGeometry width="160" relative="1" as="geometry">
                        <mxPoint x="670" y="280" as="sourcePoint"/>
                        <mxPoint x="510" y="470" as="targetPoint"/>
                        <Array as="points"/>
                    </mxGeometry>
                </mxCell>
                <mxCell id="gb1_gQOQjEjK0gqlClVg-94" value="Verify Email" style="ellipse;whiteSpace=wrap;html=1;" parent="1" vertex="1">
                    <mxGeometry x="700" y="340" width="140" height="70" as="geometry"/>
                </mxCell>
                <mxCell id="aTmPyMTQus4KjNJa9rsf-3" value="&lt;font style=&quot;font-size: 14px;&quot;&gt;HotelHub&lt;/font&gt;" style="text;html=1;align=center;verticalAlign=middle;resizable=0;points=[];autosize=1;strokeColor=none;fillColor=none;" parent="1" vertex="1">
                    <mxGeometry x="580" y="-40" width="80" height="30" as="geometry"/>
                </mxCell>
            </root>
        </mxGraphModel>
    </diagram>
    <diagram id="yP7Fj7oHT-WHHC3XObZ4" name="UCs for Customer">
        <mxGraphModel dx="1750" dy="675" grid="1" gridSize="10" guides="1" tooltips="1" connect="1" arrows="1" fold="1" page="1" pageScale="1" pageWidth="827" pageHeight="1169" math="0" shadow="0">
            <root>
                <mxCell id="0"/>
                <mxCell id="1" parent="0"/>
                <mxCell id="6gKidRqR57qKWLD1rREh-1" value="" style="whiteSpace=wrap;html=1;aspect=fixed;fillColor=#dae8fc;strokeColor=#6c8ebf;" parent="1" vertex="1">
                    <mxGeometry x="110" y="90" width="670" height="670" as="geometry"/>
                </mxCell>
                <mxCell id="jdnJ_0D07wWaDpS04h2k-12" value="Customer" style="shape=umlActor;verticalLabelPosition=bottom;verticalAlign=top;html=1;outlineConnect=0;" parent="1" vertex="1">
                    <mxGeometry x="30" y="370" width="30" height="60" as="geometry"/>
                </mxCell>
                <mxCell id="jdnJ_0D07wWaDpS04h2k-20" value="&lt;font style=&quot;font-size: 12px;&quot;&gt;&lt;b style=&quot;&quot;&gt;M&lt;/b&gt;&lt;/font&gt;" style="text;html=1;align=center;verticalAlign=middle;resizable=0;points=[];autosize=1;strokeColor=none;fillColor=none;" parent="1" vertex="1">
                    <mxGeometry x="20" y="350" width="30" height="30" as="geometry"/>
                </mxCell>
                <mxCell id="UQq5kFe5P4WevdxgdPki-1" value="&#xa;View Available Rooms&#xa;&#xa;" style="ellipse;whiteSpace=wrap;html=1;" parent="1" vertex="1">
                    <mxGeometry x="205" y="150" width="180" height="50" as="geometry"/>
                </mxCell>
                <mxCell id="UQq5kFe5P4WevdxgdPki-2" value="&lt;b&gt;&lt;font style=&quot;font-size: 14px;&quot;&gt;a&lt;/font&gt;&lt;/b&gt;" style="text;html=1;align=center;verticalAlign=middle;resizable=0;points=[];autosize=1;strokeColor=none;fillColor=none;" parent="1" vertex="1">
                    <mxGeometry x="200" y="140" width="30" height="30" as="geometry"/>
                </mxCell>
                <mxCell id="UQq5kFe5P4WevdxgdPki-4" value="Book Room" style="ellipse;whiteSpace=wrap;html=1;" parent="1" vertex="1">
                    <mxGeometry x="225.75" y="240" width="114.25" height="40" as="geometry"/>
                </mxCell>
                <mxCell id="UQq5kFe5P4WevdxgdPki-6" value="Make Payment" style="ellipse;whiteSpace=wrap;html=1;" parent="1" vertex="1">
                    <mxGeometry x="215.75" y="330" width="210" height="50" as="geometry"/>
                </mxCell>
                <mxCell id="UQq5kFe5P4WevdxgdPki-8" value="View Service" style="ellipse;whiteSpace=wrap;html=1;" parent="1" vertex="1">
                    <mxGeometry x="247.5" y="420" width="95" height="50" as="geometry"/>
                </mxCell>
                <mxCell id="UQq5kFe5P4WevdxgdPki-10" value="&lt;b&gt;&lt;font style=&quot;font-size: 14px;&quot;&gt;a&lt;/font&gt;&lt;/b&gt;" style="text;html=1;align=center;verticalAlign=middle;resizable=0;points=[];autosize=1;strokeColor=none;fillColor=none;" parent="1" vertex="1">
                    <mxGeometry x="240" y="410" width="30" height="30" as="geometry"/>
                </mxCell>
                <mxCell id="UQq5kFe5P4WevdxgdPki-11" value="Booking history" style="ellipse;whiteSpace=wrap;html=1;" parent="1" vertex="1">
                    <mxGeometry x="247" y="620" width="87" height="40" as="geometry"/>
                </mxCell>
                <mxCell id="UQq5kFe5P4WevdxgdPki-13" value="Give Feedbacks" style="ellipse;whiteSpace=wrap;html=1;" parent="1" vertex="1">
                    <mxGeometry x="240" y="710" width="130" height="39.5" as="geometry"/>
                </mxCell>
                <mxCell id="UQq5kFe5P4WevdxgdPki-14" value="Check Rooms&#39; Availability" style="ellipse;whiteSpace=wrap;html=1;" parent="1" vertex="1">
                    <mxGeometry x="517" y="230" width="140" height="50" as="geometry"/>
                </mxCell>
                <mxCell id="UQq5kFe5P4WevdxgdPki-15" value="Login" style="ellipse;whiteSpace=wrap;html=1;" parent="1" vertex="1">
                    <mxGeometry x="657" y="400" width="90" height="50" as="geometry"/>
                </mxCell>
                <mxCell id="UQq5kFe5P4WevdxgdPki-16" value="View Utility" style="ellipse;whiteSpace=wrap;html=1;" parent="1" vertex="1">
                    <mxGeometry x="231.25" y="530" width="118.5" height="50" as="geometry"/>
                </mxCell>
                <mxCell id="UQq5kFe5P4WevdxgdPki-18" value="&lt;span data-end=&quot;362&quot; data-start=&quot;339&quot;&gt;Apply Discount Code&lt;/span&gt;" style="ellipse;whiteSpace=wrap;html=1;" parent="1" vertex="1">
                    <mxGeometry x="377" y="450" width="140" height="50" as="geometry"/>
                </mxCell>
                <mxCell id="UQq5kFe5P4WevdxgdPki-19" value="&amp;lt;&amp;lt;Include&amp;gt;&amp;gt;" style="endArrow=open;endSize=12;dashed=1;html=1;rounded=0;exitX=1;exitY=0;exitDx=0;exitDy=0;entryX=0.387;entryY=1.009;entryDx=0;entryDy=0;entryPerimeter=0;" parent="1" source="UQq5kFe5P4WevdxgdPki-11" target="UQq5kFe5P4WevdxgdPki-15" edge="1">
                    <mxGeometry width="160" relative="1" as="geometry">
                        <mxPoint x="380" y="629.29" as="sourcePoint"/>
                        <mxPoint x="540" y="629.29" as="targetPoint"/>
                    </mxGeometry>
                </mxCell>
                <mxCell id="UQq5kFe5P4WevdxgdPki-21" value="" style="endArrow=block;dashed=1;endFill=0;endSize=12;html=1;rounded=0;entryX=1;entryY=1;entryDx=0;entryDy=0;exitX=0;exitY=0;exitDx=0;exitDy=0;" parent="1" source="UQq5kFe5P4WevdxgdPki-18" target="UQq5kFe5P4WevdxgdPki-6" edge="1">
                    <mxGeometry width="160" relative="1" as="geometry">
                        <mxPoint x="340" y="430" as="sourcePoint"/>
                        <mxPoint x="500" y="430" as="targetPoint"/>
                    </mxGeometry>
                </mxCell>
                <mxCell id="UQq5kFe5P4WevdxgdPki-23" value="&amp;lt;&amp;lt;Extend&amp;gt;&amp;gt;" style="edgeLabel;html=1;align=center;verticalAlign=middle;resizable=0;points=[];" parent="UQq5kFe5P4WevdxgdPki-21" connectable="0" vertex="1">
                    <mxGeometry x="0.058" y="1" relative="1" as="geometry">
                        <mxPoint x="-1" as="offset"/>
                    </mxGeometry>
                </mxCell>
                <mxCell id="UQq5kFe5P4WevdxgdPki-22" value="&amp;lt;&amp;lt;Include&amp;gt;&amp;gt;" style="endArrow=open;endSize=12;dashed=1;html=1;rounded=0;entryX=0;entryY=0;entryDx=0;entryDy=0;exitX=0.956;exitY=0.886;exitDx=0;exitDy=0;exitPerimeter=0;" parent="1" source="UQq5kFe5P4WevdxgdPki-4" target="UQq5kFe5P4WevdxgdPki-15" edge="1">
                    <mxGeometry width="160" relative="1" as="geometry">
                        <mxPoint x="340" y="430" as="sourcePoint"/>
                        <mxPoint x="500" y="430" as="targetPoint"/>
                    </mxGeometry>
                </mxCell>
                <mxCell id="UQq5kFe5P4WevdxgdPki-24" value="&amp;lt;&amp;lt;Include&amp;gt;&amp;gt;" style="endArrow=open;endSize=12;dashed=1;html=1;rounded=0;" parent="1" edge="1">
                    <mxGeometry width="160" relative="1" as="geometry">
                        <mxPoint x="340" y="270" as="sourcePoint"/>
                        <mxPoint x="527" y="270" as="targetPoint"/>
                    </mxGeometry>
                </mxCell>
                <mxCell id="UQq5kFe5P4WevdxgdPki-25" value="&amp;lt;&amp;lt;Include&amp;gt;&amp;gt;" style="endArrow=open;endSize=12;dashed=1;html=1;rounded=0;exitX=0.339;exitY=1.032;exitDx=0;exitDy=0;exitPerimeter=0;entryX=0.232;entryY=0.123;entryDx=0;entryDy=0;entryPerimeter=0;" parent="1" source="UQq5kFe5P4WevdxgdPki-4" target="UQq5kFe5P4WevdxgdPki-6" edge="1">
                    <mxGeometry x="0.0465" y="46" width="160" relative="1" as="geometry">
                        <mxPoint x="70" y="530" as="sourcePoint"/>
                        <mxPoint x="230" y="530" as="targetPoint"/>
                        <mxPoint as="offset"/>
                    </mxGeometry>
                </mxCell>
                <mxCell id="UQq5kFe5P4WevdxgdPki-26" value="" style="endArrow=none;html=1;rounded=0;entryX=0.044;entryY=0.706;entryDx=0;entryDy=0;entryPerimeter=0;" parent="1" target="UQq5kFe5P4WevdxgdPki-1" edge="1">
                    <mxGeometry width="50" height="50" relative="1" as="geometry">
                        <mxPoint x="70" y="400" as="sourcePoint"/>
                        <mxPoint x="390" y="440" as="targetPoint"/>
                    </mxGeometry>
                </mxCell>
                <mxCell id="UQq5kFe5P4WevdxgdPki-27" value="" style="endArrow=none;html=1;rounded=0;entryX=0.047;entryY=0.832;entryDx=0;entryDy=0;entryPerimeter=0;" parent="1" target="UQq5kFe5P4WevdxgdPki-4" edge="1">
                    <mxGeometry width="50" height="50" relative="1" as="geometry">
                        <mxPoint x="70" y="400" as="sourcePoint"/>
                        <mxPoint x="232" y="300" as="targetPoint"/>
                    </mxGeometry>
                </mxCell>
                <mxCell id="UQq5kFe5P4WevdxgdPki-28" value="" style="endArrow=none;html=1;rounded=0;entryX=0;entryY=0.5;entryDx=0;entryDy=0;" parent="1" target="UQq5kFe5P4WevdxgdPki-6" edge="1">
                    <mxGeometry width="50" height="50" relative="1" as="geometry">
                        <mxPoint x="70" y="400" as="sourcePoint"/>
                        <mxPoint x="390" y="440" as="targetPoint"/>
                    </mxGeometry>
                </mxCell>
                <mxCell id="UQq5kFe5P4WevdxgdPki-30" value="" style="endArrow=none;html=1;rounded=0;entryX=0;entryY=0.5;entryDx=0;entryDy=0;" parent="1" target="UQq5kFe5P4WevdxgdPki-8" edge="1">
                    <mxGeometry width="50" height="50" relative="1" as="geometry">
                        <mxPoint x="70" y="400" as="sourcePoint"/>
                        <mxPoint x="385" y="480" as="targetPoint"/>
                    </mxGeometry>
                </mxCell>
                <mxCell id="UQq5kFe5P4WevdxgdPki-32" value="" style="endArrow=none;html=1;rounded=0;entryX=0;entryY=0;entryDx=0;entryDy=0;" parent="1" target="UQq5kFe5P4WevdxgdPki-16" edge="1">
                    <mxGeometry width="50" height="50" relative="1" as="geometry">
                        <mxPoint x="70" y="400" as="sourcePoint"/>
                        <mxPoint x="390" y="440" as="targetPoint"/>
                    </mxGeometry>
                </mxCell>
                <mxCell id="UQq5kFe5P4WevdxgdPki-33" value="" style="endArrow=none;html=1;rounded=0;entryX=0.056;entryY=0.246;entryDx=0;entryDy=0;entryPerimeter=0;" parent="1" target="UQq5kFe5P4WevdxgdPki-11" edge="1">
                    <mxGeometry width="50" height="50" relative="1" as="geometry">
                        <mxPoint x="70" y="400" as="sourcePoint"/>
                        <mxPoint x="140" y="670" as="targetPoint"/>
                    </mxGeometry>
                </mxCell>
                <mxCell id="UQq5kFe5P4WevdxgdPki-34" value="" style="endArrow=none;html=1;rounded=0;entryX=0;entryY=0;entryDx=0;entryDy=0;" parent="1" target="UQq5kFe5P4WevdxgdPki-13" edge="1">
                    <mxGeometry width="50" height="50" relative="1" as="geometry">
                        <mxPoint x="70" y="400" as="sourcePoint"/>
                        <mxPoint x="390" y="440" as="targetPoint"/>
                    </mxGeometry>
                </mxCell>
                <mxCell id="mRIiTU6XPGJrWF04GFpg-1" value="&lt;font style=&quot;font-size: 18px;&quot;&gt;HotelHub&lt;/font&gt;" style="text;html=1;align=center;verticalAlign=middle;resizable=0;points=[];autosize=1;strokeColor=none;fillColor=none;" parent="1" vertex="1">
                    <mxGeometry x="397" y="105" width="100" height="40" as="geometry"/>
                </mxCell>
            </root>
        </mxGraphModel>
    </diagram>
    <diagram id="q-ga9_ek5Ry9_F8F7PjM" name="UCs for Receptionist">
        <mxGraphModel dx="2162" dy="834" grid="1" gridSize="10" guides="1" tooltips="1" connect="1" arrows="1" fold="1" page="1" pageScale="1" pageWidth="827" pageHeight="1169" math="0" shadow="0">
            <root>
                <mxCell id="0"/>
                <mxCell id="1" parent="0"/>
                <mxCell id="oM3ZgBSk0WkF0WwjBXat-1" value="" style="rounded=0;whiteSpace=wrap;html=1;fillColor=#dae8fc;strokeColor=#6c8ebf;" vertex="1" parent="1">
                    <mxGeometry x="130" y="200" width="630" height="820" as="geometry"/>
                </mxCell>
                <mxCell id="DQ7Vff3KMetGuW1LnDB--1" value="Receptionist&lt;div&gt;&lt;br&gt;&lt;/div&gt;" style="shape=umlActor;verticalLabelPosition=bottom;verticalAlign=top;html=1;outlineConnect=0;" parent="1" vertex="1">
                    <mxGeometry x="20" y="490" width="30" height="60" as="geometry"/>
                </mxCell>
                <mxCell id="DQ7Vff3KMetGuW1LnDB--4" value="&lt;div&gt;View Room List&lt;/div&gt;&lt;div&gt;&lt;br&gt;&lt;/div&gt;&lt;div&gt;Search&lt;/div&gt;&lt;div&gt;Sort&amp;nbsp;&lt;/div&gt;&lt;div&gt;&lt;br&gt;&lt;/div&gt;" style="ellipse;whiteSpace=wrap;html=1;" parent="1" vertex="1">
                    <mxGeometry x="220" y="290" width="220" height="80" as="geometry"/>
                </mxCell>
                <mxCell id="DQ7Vff3KMetGuW1LnDB--5" value="" style="endArrow=none;html=1;rounded=0;fontSize=12;startSize=8;endSize=8;curved=1;entryX=0.946;entryY=0.303;entryDx=0;entryDy=0;entryPerimeter=0;exitX=0.045;exitY=0.314;exitDx=0;exitDy=0;exitPerimeter=0;" parent="1" source="DQ7Vff3KMetGuW1LnDB--4" target="DQ7Vff3KMetGuW1LnDB--4" edge="1">
                    <mxGeometry width="50" height="50" relative="1" as="geometry">
                        <mxPoint x="210" y="370" as="sourcePoint"/>
                        <mxPoint x="460" y="360" as="targetPoint"/>
                    </mxGeometry>
                </mxCell>
                <mxCell id="DQ7Vff3KMetGuW1LnDB--6" value="Update Room Status" style="ellipse;whiteSpace=wrap;html=1;" parent="1" vertex="1">
                    <mxGeometry x="240" y="410" width="160" height="50" as="geometry"/>
                </mxCell>
                <mxCell id="DQ7Vff3KMetGuW1LnDB--7" value="&lt;div&gt;View Customer List&lt;/div&gt;&lt;div&gt;&lt;br&gt;&lt;/div&gt;&lt;div&gt;Search&lt;/div&gt;&lt;div&gt;Sort&amp;nbsp;&lt;/div&gt;&lt;div&gt;&lt;br&gt;&lt;/div&gt;" style="ellipse;whiteSpace=wrap;html=1;" parent="1" vertex="1">
                    <mxGeometry x="210" y="500" width="220" height="80" as="geometry"/>
                </mxCell>
                <mxCell id="DQ7Vff3KMetGuW1LnDB--8" value="" style="endArrow=none;html=1;rounded=0;fontSize=12;startSize=8;endSize=8;curved=1;entryX=0.955;entryY=0.294;entryDx=0;entryDy=0;entryPerimeter=0;" parent="1" target="DQ7Vff3KMetGuW1LnDB--7" edge="1">
                    <mxGeometry width="50" height="50" relative="1" as="geometry">
                        <mxPoint x="220" y="524" as="sourcePoint"/>
                        <mxPoint x="420" y="610" as="targetPoint"/>
                    </mxGeometry>
                </mxCell>
                <mxCell id="DQ7Vff3KMetGuW1LnDB--9" value="Walk-in Booking Acceptance" style="ellipse;whiteSpace=wrap;html=1;" parent="1" vertex="1">
                    <mxGeometry x="275" y="620" width="190" height="40" as="geometry"/>
                </mxCell>
                <mxCell id="DQ7Vff3KMetGuW1LnDB--10" value="Modify Booking" style="ellipse;whiteSpace=wrap;html=1;" parent="1" vertex="1">
                    <mxGeometry x="330" y="710" width="120" height="60" as="geometry"/>
                </mxCell>
                <mxCell id="DQ7Vff3KMetGuW1LnDB--11" value="Receive Payment" style="ellipse;whiteSpace=wrap;html=1;" parent="1" vertex="1">
                    <mxGeometry x="347.5" y="810" width="115" height="60" as="geometry"/>
                </mxCell>
                <mxCell id="DQ7Vff3KMetGuW1LnDB--12" value="Generate Invoice" style="ellipse;whiteSpace=wrap;html=1;" parent="1" vertex="1">
                    <mxGeometry x="227.5" y="940" width="120" height="60" as="geometry"/>
                </mxCell>
                <mxCell id="DQ7Vff3KMetGuW1LnDB--13" value="Search" style="ellipse;whiteSpace=wrap;html=1;" parent="1" vertex="1">
                    <mxGeometry x="620" y="290" width="110" height="55" as="geometry"/>
                </mxCell>
                <mxCell id="DQ7Vff3KMetGuW1LnDB--14" value="Sort" style="ellipse;whiteSpace=wrap;html=1;" parent="1" vertex="1">
                    <mxGeometry x="580" y="420" width="100" height="50" as="geometry"/>
                </mxCell>
                <mxCell id="DQ7Vff3KMetGuW1LnDB--15" value="Search" style="ellipse;whiteSpace=wrap;html=1;" parent="1" vertex="1">
                    <mxGeometry x="640" y="530" width="110" height="55" as="geometry"/>
                </mxCell>
                <mxCell id="DQ7Vff3KMetGuW1LnDB--16" value="Sort" style="ellipse;whiteSpace=wrap;html=1;" parent="1" vertex="1">
                    <mxGeometry x="590" y="640" width="100" height="50" as="geometry"/>
                </mxCell>
                <mxCell id="DQ7Vff3KMetGuW1LnDB--17" value="View Booking Details" style="ellipse;whiteSpace=wrap;html=1;" parent="1" vertex="1">
                    <mxGeometry x="520" y="790" width="180" height="60" as="geometry"/>
                </mxCell>
                <mxCell id="DQ7Vff3KMetGuW1LnDB--18" value="&amp;lt;&amp;lt;include&amp;gt;&amp;gt;" style="endArrow=open;endSize=12;dashed=1;html=1;rounded=0;fontSize=12;curved=1;exitX=1;exitY=0.5;exitDx=0;exitDy=0;" parent="1" source="DQ7Vff3KMetGuW1LnDB--10" edge="1" target="DQ7Vff3KMetGuW1LnDB--17">
                    <mxGeometry width="160" relative="1" as="geometry">
                        <mxPoint x="360" y="779.44" as="sourcePoint"/>
                        <mxPoint x="510" y="779" as="targetPoint"/>
                    </mxGeometry>
                </mxCell>
                <mxCell id="DQ7Vff3KMetGuW1LnDB--19" value="&amp;lt;&amp;lt;Extend&amp;gt;&amp;gt;" style="endArrow=open;endSize=12;dashed=1;html=1;rounded=0;fontSize=12;curved=1;entryX=0.975;entryY=0.694;entryDx=0;entryDy=0;entryPerimeter=0;exitX=0;exitY=0;exitDx=0;exitDy=0;" parent="1" source="DQ7Vff3KMetGuW1LnDB--16" target="DQ7Vff3KMetGuW1LnDB--7" edge="1">
                    <mxGeometry x="-0.0989" y="-4" width="160" relative="1" as="geometry">
                        <mxPoint x="420" y="700" as="sourcePoint"/>
                        <mxPoint x="580" y="700" as="targetPoint"/>
                        <Array as="points">
                            <mxPoint x="520" y="610"/>
                        </Array>
                        <mxPoint as="offset"/>
                    </mxGeometry>
                </mxCell>
                <mxCell id="DQ7Vff3KMetGuW1LnDB--20" value="&amp;lt;&amp;lt;Extend&amp;gt;&amp;gt;" style="endArrow=open;endSize=12;dashed=1;html=1;rounded=0;fontSize=12;curved=1;entryX=1;entryY=0.5;entryDx=0;entryDy=0;" parent="1" target="DQ7Vff3KMetGuW1LnDB--7" edge="1">
                    <mxGeometry x="0.2001" y="-1" width="160" relative="1" as="geometry">
                        <mxPoint x="640" y="540" as="sourcePoint"/>
                        <mxPoint x="440" y="549" as="targetPoint"/>
                        <Array as="points">
                            <mxPoint x="660" y="550"/>
                            <mxPoint x="540" y="540"/>
                        </Array>
                        <mxPoint as="offset"/>
                    </mxGeometry>
                </mxCell>
                <mxCell id="DQ7Vff3KMetGuW1LnDB--21" value="&amp;lt;&amp;lt;Extend&amp;gt;&amp;gt;" style="endArrow=open;endSize=12;dashed=1;html=1;rounded=0;fontSize=12;curved=1;entryX=0.975;entryY=0.694;entryDx=0;entryDy=0;entryPerimeter=0;exitX=0;exitY=0;exitDx=0;exitDy=0;" parent="1" edge="1">
                    <mxGeometry x="-0.1002" y="-4" width="160" relative="1" as="geometry">
                        <mxPoint x="584" y="432" as="sourcePoint"/>
                        <mxPoint x="414" y="360" as="targetPoint"/>
                        <Array as="points">
                            <mxPoint x="500" y="394"/>
                        </Array>
                        <mxPoint as="offset"/>
                    </mxGeometry>
                </mxCell>
                <mxCell id="DQ7Vff3KMetGuW1LnDB--22" value="&amp;lt;&amp;lt;Extend&amp;gt;&amp;gt;" style="endArrow=open;endSize=12;dashed=1;html=1;rounded=0;fontSize=12;curved=1;entryX=0.975;entryY=0.694;entryDx=0;entryDy=0;entryPerimeter=0;exitX=0;exitY=0.5;exitDx=0;exitDy=0;" parent="1" source="DQ7Vff3KMetGuW1LnDB--13" edge="1">
                    <mxGeometry x="-0.0002" y="1" width="160" relative="1" as="geometry">
                        <mxPoint x="610" y="392" as="sourcePoint"/>
                        <mxPoint x="440" y="320" as="targetPoint"/>
                        <Array as="points"/>
                        <mxPoint as="offset"/>
                    </mxGeometry>
                </mxCell>
                <mxCell id="DQ7Vff3KMetGuW1LnDB--23" value="" style="endArrow=none;html=1;rounded=0;fontSize=12;startSize=8;endSize=8;curved=1;entryX=0.053;entryY=0.7;entryDx=0;entryDy=0;entryPerimeter=0;" parent="1" target="DQ7Vff3KMetGuW1LnDB--4" edge="1">
                    <mxGeometry width="50" height="50" relative="1" as="geometry">
                        <mxPoint x="70" y="550" as="sourcePoint"/>
                        <mxPoint x="190" y="354" as="targetPoint"/>
                    </mxGeometry>
                </mxCell>
                <mxCell id="DQ7Vff3KMetGuW1LnDB--24" value="" style="endArrow=none;html=1;rounded=0;fontSize=12;startSize=8;endSize=8;curved=1;entryX=0.07;entryY=0.745;entryDx=0;entryDy=0;entryPerimeter=0;" parent="1" target="DQ7Vff3KMetGuW1LnDB--6" edge="1">
                    <mxGeometry width="50" height="50" relative="1" as="geometry">
                        <mxPoint x="70" y="550" as="sourcePoint"/>
                        <mxPoint x="252" y="470" as="targetPoint"/>
                    </mxGeometry>
                </mxCell>
                <mxCell id="DQ7Vff3KMetGuW1LnDB--25" value="" style="endArrow=none;html=1;rounded=0;fontSize=12;startSize=8;endSize=8;curved=1;entryX=0.25;entryY=0.062;entryDx=0;entryDy=0;entryPerimeter=0;" parent="1" target="DQ7Vff3KMetGuW1LnDB--9" edge="1">
                    <mxGeometry width="50" height="50" relative="1" as="geometry">
                        <mxPoint x="70" y="550" as="sourcePoint"/>
                        <mxPoint x="260" y="640" as="targetPoint"/>
                    </mxGeometry>
                </mxCell>
                <mxCell id="DQ7Vff3KMetGuW1LnDB--26" value="" style="endArrow=none;html=1;rounded=0;fontSize=12;startSize=8;endSize=8;curved=1;entryX=0.015;entryY=0.386;entryDx=0;entryDy=0;entryPerimeter=0;" parent="1" target="DQ7Vff3KMetGuW1LnDB--7" edge="1">
                    <mxGeometry width="50" height="50" relative="1" as="geometry">
                        <mxPoint x="70" y="550" as="sourcePoint"/>
                        <mxPoint x="200" y="520" as="targetPoint"/>
                    </mxGeometry>
                </mxCell>
                <mxCell id="DQ7Vff3KMetGuW1LnDB--27" value="" style="endArrow=none;html=1;rounded=0;fontSize=12;startSize=8;endSize=8;curved=1;" parent="1" target="DQ7Vff3KMetGuW1LnDB--10" edge="1">
                    <mxGeometry width="50" height="50" relative="1" as="geometry">
                        <mxPoint x="70" y="550" as="sourcePoint"/>
                        <mxPoint x="390" y="640" as="targetPoint"/>
                    </mxGeometry>
                </mxCell>
                <mxCell id="DQ7Vff3KMetGuW1LnDB--28" value="" style="endArrow=none;html=1;rounded=0;fontSize=12;startSize=8;endSize=8;curved=1;entryX=0;entryY=0;entryDx=0;entryDy=0;" parent="1" target="DQ7Vff3KMetGuW1LnDB--11" edge="1">
                    <mxGeometry width="50" height="50" relative="1" as="geometry">
                        <mxPoint x="70" y="550" as="sourcePoint"/>
                        <mxPoint x="240" y="660" as="targetPoint"/>
                    </mxGeometry>
                </mxCell>
                <mxCell id="DQ7Vff3KMetGuW1LnDB--29" value="" style="endArrow=none;html=1;rounded=0;fontSize=12;startSize=8;endSize=8;curved=1;entryX=0.09;entryY=0.233;entryDx=0;entryDy=0;entryPerimeter=0;" parent="1" target="DQ7Vff3KMetGuW1LnDB--12" edge="1">
                    <mxGeometry width="50" height="50" relative="1" as="geometry">
                        <mxPoint x="70" y="550" as="sourcePoint"/>
                        <mxPoint x="240" y="820" as="targetPoint"/>
                    </mxGeometry>
                </mxCell>
                <mxCell id="hLy27A7NQkv5bNYfbLKX-1" value="&lt;font style=&quot;font-size: 18px;&quot;&gt;HotelHub&lt;/font&gt;" style="text;html=1;align=center;verticalAlign=middle;resizable=0;points=[];autosize=1;strokeColor=none;fillColor=none;" parent="1" vertex="1">
                    <mxGeometry x="395" y="210" width="100" height="40" as="geometry"/>
                </mxCell>
            </root>
        </mxGraphModel>
    </diagram>
    <diagram id="BgvCkpG7qa3365wtNF8l" name="UCs for Manager">
        <mxGraphModel dx="6626" dy="3413" grid="1" gridSize="10" guides="1" tooltips="1" connect="1" arrows="1" fold="1" page="0" pageScale="1" pageWidth="827" pageHeight="1169" background="none" math="0" shadow="0">
            <root>
                <mxCell id="0"/>
                <mxCell id="1" parent="0"/>
                <mxCell id="AE3sRVwCtPUi37FoBuNn-4" value="" style="rounded=0;whiteSpace=wrap;html=1;fillColor=#dae8fc;strokeColor=#6c8ebf;" parent="1" vertex="1">
                    <mxGeometry x="-3630" y="-2390" width="1010" height="1730" as="geometry"/>
                </mxCell>
                <mxCell id="LJJnT18B9IQdikHcgreg-1" value="Manager" style="shape=umlActor;verticalLabelPosition=bottom;verticalAlign=top;html=1;" parent="1" vertex="1">
                    <mxGeometry x="-3710" y="-1720" width="30" height="60" as="geometry"/>
                </mxCell>
                <mxCell id="LJJnT18B9IQdikHcgreg-4" value="Receptionist" style="shape=umlActor;verticalLabelPosition=bottom;verticalAlign=top;html=1;" parent="1" vertex="1">
                    <mxGeometry x="-3710" y="-1920" width="30" height="60" as="geometry"/>
                </mxCell>
                <mxCell id="LJJnT18B9IQdikHcgreg-5" value="" style="endArrow=block;endSize=16;endFill=0;html=1;rounded=0;fontSize=12;curved=1;" parent="1" edge="1">
                    <mxGeometry width="160" relative="1" as="geometry">
                        <mxPoint x="-3695.34" y="-1730" as="sourcePoint"/>
                        <mxPoint x="-3695.34" y="-1830" as="targetPoint"/>
                    </mxGeometry>
                </mxCell>
                <mxCell id="LJJnT18B9IQdikHcgreg-7" value="&lt;b&gt;M&lt;/b&gt;" style="text;html=1;align=center;verticalAlign=middle;resizable=0;points=[];autosize=1;strokeColor=none;fillColor=none;fontSize=16;" parent="1" vertex="1">
                    <mxGeometry x="-3725" y="-1740" width="40" height="30" as="geometry"/>
                </mxCell>
                <mxCell id="LJJnT18B9IQdikHcgreg-8" value="&lt;b&gt;a&lt;/b&gt;" style="text;html=1;align=center;verticalAlign=middle;resizable=0;points=[];autosize=1;strokeColor=none;fillColor=none;fontSize=16;" parent="1" vertex="1">
                    <mxGeometry x="-3720" y="-1940" width="30" height="30" as="geometry"/>
                </mxCell>
                <mxCell id="LJJnT18B9IQdikHcgreg-9" value="Management Room" style="ellipse;whiteSpace=wrap;html=1;" parent="1" vertex="1">
                    <mxGeometry x="-3460" y="-2300" width="200" height="70" as="geometry"/>
                </mxCell>
                <mxCell id="LJJnT18B9IQdikHcgreg-10" value="View All Customers" style="ellipse;whiteSpace=wrap;html=1;" parent="1" vertex="1">
                    <mxGeometry x="-3460" y="-2180" width="200" height="70" as="geometry"/>
                </mxCell>
                <mxCell id="LJJnT18B9IQdikHcgreg-11" value="Update Customer Info" style="ellipse;whiteSpace=wrap;html=1;" parent="1" vertex="1">
                    <mxGeometry x="-3460" y="-2060" width="200" height="70" as="geometry"/>
                </mxCell>
                <mxCell id="LJJnT18B9IQdikHcgreg-12" value="Add New Room" style="ellipse;whiteSpace=wrap;html=1;" parent="1" vertex="1">
                    <mxGeometry x="-3080" y="-2330" width="190" height="70" as="geometry"/>
                </mxCell>
                <mxCell id="LJJnT18B9IQdikHcgreg-13" value="Edit Room Details" style="ellipse;whiteSpace=wrap;html=1;" parent="1" vertex="1">
                    <mxGeometry x="-3080" y="-2180" width="190" height="70" as="geometry"/>
                </mxCell>
                <mxCell id="LJJnT18B9IQdikHcgreg-14" value="Delete Room" style="ellipse;whiteSpace=wrap;html=1;" parent="1" vertex="1">
                    <mxGeometry x="-3080" y="-2050" width="170" height="70" as="geometry"/>
                </mxCell>
                <mxCell id="LJJnT18B9IQdikHcgreg-15" style="edgeStyle=none;curved=1;rounded=0;orthogonalLoop=1;jettySize=auto;html=1;exitX=0.5;exitY=1;exitDx=0;exitDy=0;fontSize=12;startSize=8;endSize=8;" parent="1" source="LJJnT18B9IQdikHcgreg-13" target="LJJnT18B9IQdikHcgreg-13" edge="1">
                    <mxGeometry relative="1" as="geometry"/>
                </mxCell>
                <mxCell id="LJJnT18B9IQdikHcgreg-16" value="Management Bookings" style="ellipse;whiteSpace=wrap;html=1;" parent="1" vertex="1">
                    <mxGeometry x="-3420" y="-1950" width="240" height="70" as="geometry"/>
                </mxCell>
                <mxCell id="LJJnT18B9IQdikHcgreg-17" value="View All Bookings" style="ellipse;whiteSpace=wrap;html=1;" parent="1" vertex="1">
                    <mxGeometry x="-2890" y="-1940" width="190" height="70" as="geometry"/>
                </mxCell>
                <mxCell id="LJJnT18B9IQdikHcgreg-18" value="Confirm Payment" style="ellipse;whiteSpace=wrap;html=1;" parent="1" vertex="1">
                    <mxGeometry x="-3420" y="-1820" width="170" height="70" as="geometry"/>
                </mxCell>
                <mxCell id="LJJnT18B9IQdikHcgreg-19" value="View Revenue Reports" style="ellipse;whiteSpace=wrap;html=1;" parent="1" vertex="1">
                    <mxGeometry x="-3260" y="-1740" width="190" height="70" as="geometry"/>
                </mxCell>
                <mxCell id="LJJnT18B9IQdikHcgreg-20" value="Management Employee" style="ellipse;whiteSpace=wrap;html=1;" parent="1" vertex="1">
                    <mxGeometry x="-3470" y="-1680" width="200" height="70" as="geometry"/>
                </mxCell>
                <mxCell id="LJJnT18B9IQdikHcgreg-21" value="Assign Roles" style="ellipse;whiteSpace=wrap;html=1;" parent="1" vertex="1">
                    <mxGeometry x="-3440" y="-1510" width="140" height="70" as="geometry"/>
                </mxCell>
                <mxCell id="LJJnT18B9IQdikHcgreg-22" value="Management Service" style="ellipse;whiteSpace=wrap;html=1;" parent="1" vertex="1">
                    <mxGeometry x="-3420" y="-1390" width="200" height="70" as="geometry"/>
                </mxCell>
                <mxCell id="LJJnT18B9IQdikHcgreg-23" value="Management Utility" style="ellipse;whiteSpace=wrap;html=1;" parent="1" vertex="1">
                    <mxGeometry x="-3460" y="-1250" width="200" height="70" as="geometry"/>
                </mxCell>
                <mxCell id="LJJnT18B9IQdikHcgreg-24" value="View Service" style="ellipse;whiteSpace=wrap;html=1;" parent="1" vertex="1">
                    <mxGeometry x="-3160" y="-1570" width="140" height="70" as="geometry"/>
                </mxCell>
                <mxCell id="LJJnT18B9IQdikHcgreg-25" value="Add Service" style="ellipse;whiteSpace=wrap;html=1;" parent="1" vertex="1">
                    <mxGeometry x="-2930" y="-1540" width="140" height="70" as="geometry"/>
                </mxCell>
                <mxCell id="LJJnT18B9IQdikHcgreg-26" value="Update Service" style="ellipse;whiteSpace=wrap;html=1;" parent="1" vertex="1">
                    <mxGeometry x="-2800" y="-1430" width="140" height="70" as="geometry"/>
                </mxCell>
                <mxCell id="LJJnT18B9IQdikHcgreg-27" value="Delete Service" style="ellipse;whiteSpace=wrap;html=1;" parent="1" vertex="1">
                    <mxGeometry x="-2840" y="-1310" width="140" height="70" as="geometry"/>
                </mxCell>
                <mxCell id="LJJnT18B9IQdikHcgreg-28" value="Add Utility" style="ellipse;whiteSpace=wrap;html=1;" parent="1" vertex="1">
                    <mxGeometry x="-3090" y="-1250" width="140" height="70" as="geometry"/>
                </mxCell>
                <mxCell id="LJJnT18B9IQdikHcgreg-29" value="Delete Utility" style="ellipse;whiteSpace=wrap;html=1;" parent="1" vertex="1">
                    <mxGeometry x="-3380" y="-1070" width="140" height="70" as="geometry"/>
                </mxCell>
                <mxCell id="LJJnT18B9IQdikHcgreg-30" value="Update Promotion" style="ellipse;whiteSpace=wrap;html=1;" parent="1" vertex="1">
                    <mxGeometry x="-3170" y="-1140" width="140" height="70" as="geometry"/>
                </mxCell>
                <mxCell id="LJJnT18B9IQdikHcgreg-31" value="Management Promotion&lt;div&gt;&lt;br&gt;&lt;/div&gt;&lt;div&gt;&lt;br&gt;&lt;/div&gt;&lt;div&gt;&lt;br&gt;&lt;/div&gt;&lt;div&gt;Send&amp;nbsp;promotion&lt;/div&gt;" style="ellipse;whiteSpace=wrap;html=1;" parent="1" vertex="1">
                    <mxGeometry x="-3510" y="-900" width="380" height="90" as="geometry"/>
                </mxCell>
                <mxCell id="LJJnT18B9IQdikHcgreg-32" value="Add Promotion" style="ellipse;whiteSpace=wrap;html=1;" parent="1" vertex="1">
                    <mxGeometry x="-2990" y="-1040" width="190" height="70" as="geometry"/>
                </mxCell>
                <mxCell id="LJJnT18B9IQdikHcgreg-33" value="Update Promotion" style="ellipse;whiteSpace=wrap;html=1;" parent="1" vertex="1">
                    <mxGeometry x="-2865" y="-930" width="215" height="70" as="geometry"/>
                </mxCell>
                <mxCell id="LJJnT18B9IQdikHcgreg-35" value="Delete Promotion" style="ellipse;whiteSpace=wrap;html=1;" parent="1" vertex="1">
                    <mxGeometry x="-2980" y="-790" width="210" height="70" as="geometry"/>
                </mxCell>
                <mxCell id="LJJnT18B9IQdikHcgreg-36" value="" style="endArrow=none;html=1;rounded=0;fontSize=12;startSize=8;endSize=8;curved=1;entryX=0;entryY=0.5;entryDx=0;entryDy=0;" parent="1" target="LJJnT18B9IQdikHcgreg-18" edge="1">
                    <mxGeometry width="50" height="50" relative="1" as="geometry">
                        <mxPoint x="-3670" y="-1700" as="sourcePoint"/>
                        <mxPoint x="-3460" y="-1810" as="targetPoint"/>
                    </mxGeometry>
                </mxCell>
                <mxCell id="LJJnT18B9IQdikHcgreg-37" value="" style="endArrow=none;html=1;rounded=0;fontSize=12;startSize=8;endSize=8;curved=1;entryX=0.002;entryY=0.609;entryDx=0;entryDy=0;entryPerimeter=0;" parent="1" target="LJJnT18B9IQdikHcgreg-9" edge="1">
                    <mxGeometry width="50" height="50" relative="1" as="geometry">
                        <mxPoint x="-3670" y="-1700" as="sourcePoint"/>
                        <mxPoint x="-3430" y="-1830" as="targetPoint"/>
                    </mxGeometry>
                </mxCell>
                <mxCell id="LJJnT18B9IQdikHcgreg-38" value="" style="endArrow=none;html=1;rounded=0;fontSize=12;startSize=8;endSize=8;curved=1;entryX=0.018;entryY=0.631;entryDx=0;entryDy=0;entryPerimeter=0;" parent="1" target="LJJnT18B9IQdikHcgreg-10" edge="1">
                    <mxGeometry width="50" height="50" relative="1" as="geometry">
                        <mxPoint x="-3670" y="-1700" as="sourcePoint"/>
                        <mxPoint x="-3460" y="-1910" as="targetPoint"/>
                    </mxGeometry>
                </mxCell>
                <mxCell id="LJJnT18B9IQdikHcgreg-39" value="" style="endArrow=none;html=1;rounded=0;fontSize=12;startSize=8;endSize=8;curved=1;entryX=0.042;entryY=0.723;entryDx=0;entryDy=0;entryPerimeter=0;" parent="1" target="LJJnT18B9IQdikHcgreg-11" edge="1">
                    <mxGeometry width="50" height="50" relative="1" as="geometry">
                        <mxPoint x="-3670" y="-1700" as="sourcePoint"/>
                        <mxPoint x="-3460" y="-1910" as="targetPoint"/>
                    </mxGeometry>
                </mxCell>
                <mxCell id="LJJnT18B9IQdikHcgreg-41" value="" style="endArrow=none;html=1;rounded=0;fontSize=12;startSize=8;endSize=8;curved=1;entryX=0.058;entryY=0.251;entryDx=0;entryDy=0;entryPerimeter=0;" parent="1" target="LJJnT18B9IQdikHcgreg-21" edge="1">
                    <mxGeometry width="50" height="50" relative="1" as="geometry">
                        <mxPoint x="-3670" y="-1700" as="sourcePoint"/>
                        <mxPoint x="-3460" y="-1530" as="targetPoint"/>
                    </mxGeometry>
                </mxCell>
                <mxCell id="LJJnT18B9IQdikHcgreg-42" value="" style="endArrow=none;html=1;rounded=0;fontSize=12;startSize=8;endSize=8;curved=1;entryX=0;entryY=0.5;entryDx=0;entryDy=0;" parent="1" target="LJJnT18B9IQdikHcgreg-20" edge="1">
                    <mxGeometry width="50" height="50" relative="1" as="geometry">
                        <mxPoint x="-3670" y="-1700" as="sourcePoint"/>
                        <mxPoint x="-3430" y="-1530" as="targetPoint"/>
                    </mxGeometry>
                </mxCell>
                <mxCell id="LJJnT18B9IQdikHcgreg-43" value="" style="endArrow=none;html=1;rounded=0;fontSize=12;startSize=8;endSize=8;curved=1;entryX=0;entryY=0.5;entryDx=0;entryDy=0;" parent="1" target="LJJnT18B9IQdikHcgreg-19" edge="1">
                    <mxGeometry width="50" height="50" relative="1" as="geometry">
                        <mxPoint x="-3670" y="-1700" as="sourcePoint"/>
                        <mxPoint x="-3430" y="-1530" as="targetPoint"/>
                    </mxGeometry>
                </mxCell>
                <mxCell id="LJJnT18B9IQdikHcgreg-44" value="" style="endArrow=none;html=1;rounded=0;fontSize=12;startSize=8;endSize=8;curved=1;entryX=0.106;entryY=0.238;entryDx=0;entryDy=0;entryPerimeter=0;" parent="1" target="LJJnT18B9IQdikHcgreg-22" edge="1">
                    <mxGeometry width="50" height="50" relative="1" as="geometry">
                        <mxPoint x="-3670" y="-1700" as="sourcePoint"/>
                        <mxPoint x="-3430" y="-1420" as="targetPoint"/>
                    </mxGeometry>
                </mxCell>
                <mxCell id="LJJnT18B9IQdikHcgreg-45" value="" style="endArrow=none;html=1;rounded=0;fontSize=12;startSize=8;endSize=8;curved=1;entryX=0.104;entryY=0.222;entryDx=0;entryDy=0;entryPerimeter=0;" parent="1" target="LJJnT18B9IQdikHcgreg-23" edge="1">
                    <mxGeometry width="50" height="50" relative="1" as="geometry">
                        <mxPoint x="-3670" y="-1700" as="sourcePoint"/>
                        <mxPoint x="-3430" y="-1420" as="targetPoint"/>
                    </mxGeometry>
                </mxCell>
                <mxCell id="LJJnT18B9IQdikHcgreg-46" value="" style="endArrow=none;html=1;rounded=0;fontSize=12;startSize=8;endSize=8;curved=1;entryX=0.08;entryY=0.233;entryDx=0;entryDy=0;entryPerimeter=0;" parent="1" target="LJJnT18B9IQdikHcgreg-31" edge="1">
                    <mxGeometry width="50" height="50" relative="1" as="geometry">
                        <mxPoint x="-3670" y="-1700" as="sourcePoint"/>
                        <mxPoint x="-3240" y="-1460" as="targetPoint"/>
                    </mxGeometry>
                </mxCell>
                <mxCell id="LJJnT18B9IQdikHcgreg-47" value="&amp;lt;&amp;lt;Include&amp;gt;&amp;gt;" style="endArrow=open;endSize=12;dashed=1;html=1;rounded=0;fontSize=12;curved=1;entryX=0;entryY=0.5;entryDx=0;entryDy=0;" parent="1" target="LJJnT18B9IQdikHcgreg-17" edge="1">
                    <mxGeometry width="160" relative="1" as="geometry">
                        <mxPoint x="-3180" y="-1916" as="sourcePoint"/>
                        <mxPoint x="-3020" y="-1916" as="targetPoint"/>
                    </mxGeometry>
                </mxCell>
                <mxCell id="LJJnT18B9IQdikHcgreg-52" value="&amp;lt;&amp;lt;Include&amp;gt;&amp;gt;" style="endArrow=open;endSize=12;dashed=1;html=1;rounded=0;fontSize=12;curved=1;entryX=0;entryY=0;entryDx=0;entryDy=0;exitX=0.963;exitY=0.758;exitDx=0;exitDy=0;exitPerimeter=0;" parent="1" source="LJJnT18B9IQdikHcgreg-9" target="LJJnT18B9IQdikHcgreg-14" edge="1">
                    <mxGeometry width="160" relative="1" as="geometry">
                        <mxPoint x="-3110" y="-2070" as="sourcePoint"/>
                        <mxPoint x="-2820" y="-2059" as="targetPoint"/>
                    </mxGeometry>
                </mxCell>
                <mxCell id="LJJnT18B9IQdikHcgreg-53" value="&amp;lt;&amp;lt;Include&amp;gt;&amp;gt;" style="endArrow=open;endSize=12;dashed=1;html=1;rounded=0;fontSize=12;curved=1;entryX=0.014;entryY=0.649;entryDx=0;entryDy=0;exitX=0.95;exitY=0.714;exitDx=0;exitDy=0;exitPerimeter=0;entryPerimeter=0;" parent="1" source="LJJnT18B9IQdikHcgreg-9" target="LJJnT18B9IQdikHcgreg-12" edge="1">
                    <mxGeometry width="160" relative="1" as="geometry">
                        <mxPoint x="-3170" y="-2310" as="sourcePoint"/>
                        <mxPoint x="-2880" y="-2299" as="targetPoint"/>
                    </mxGeometry>
                </mxCell>
                <mxCell id="LJJnT18B9IQdikHcgreg-54" value="&amp;lt;&amp;lt;Include&amp;gt;&amp;gt;" style="endArrow=open;endSize=12;dashed=1;html=1;rounded=0;fontSize=12;curved=1;" parent="1" target="LJJnT18B9IQdikHcgreg-13" edge="1">
                    <mxGeometry width="160" relative="1" as="geometry">
                        <mxPoint x="-3270" y="-2250" as="sourcePoint"/>
                        <mxPoint x="-2900" y="-2219" as="targetPoint"/>
                    </mxGeometry>
                </mxCell>
                <mxCell id="LJJnT18B9IQdikHcgreg-55" value="&lt;b&gt;a&lt;/b&gt;" style="text;html=1;align=center;verticalAlign=middle;resizable=0;points=[];autosize=1;strokeColor=none;fillColor=none;fontSize=16;" parent="1" vertex="1">
                    <mxGeometry x="-3440" y="-2060" width="30" height="30" as="geometry"/>
                </mxCell>
                <mxCell id="LJJnT18B9IQdikHcgreg-56" value="&lt;b&gt;a&lt;/b&gt;" style="text;html=1;align=center;verticalAlign=middle;resizable=0;points=[];autosize=1;strokeColor=none;fillColor=none;fontSize=16;" parent="1" vertex="1">
                    <mxGeometry x="-3160" y="-1580" width="30" height="30" as="geometry"/>
                </mxCell>
                <mxCell id="LJJnT18B9IQdikHcgreg-57" value="&amp;lt;&amp;lt;Include&amp;gt;&amp;gt;" style="endArrow=open;endSize=12;dashed=1;html=1;rounded=0;fontSize=12;curved=1;entryX=0.055;entryY=0.733;entryDx=0;entryDy=0;entryPerimeter=0;exitX=0.735;exitY=0.038;exitDx=0;exitDy=0;exitPerimeter=0;" parent="1" source="LJJnT18B9IQdikHcgreg-22" target="LJJnT18B9IQdikHcgreg-25" edge="1">
                    <mxGeometry x="0.3442" y="-2" width="160" relative="1" as="geometry">
                        <mxPoint x="-3230" y="-1450" as="sourcePoint"/>
                        <mxPoint x="-2940" y="-1439" as="targetPoint"/>
                        <mxPoint as="offset"/>
                    </mxGeometry>
                </mxCell>
                <mxCell id="LJJnT18B9IQdikHcgreg-58" value="&amp;lt;&amp;lt;Include&amp;gt;&amp;gt;" style="endArrow=open;endSize=12;dashed=1;html=1;rounded=0;fontSize=12;curved=1;" parent="1" edge="1">
                    <mxGeometry width="160" relative="1" as="geometry">
                        <mxPoint x="-3265" y="-1390" as="sourcePoint"/>
                        <mxPoint x="-2800" y="-1389.17" as="targetPoint"/>
                    </mxGeometry>
                </mxCell>
                <mxCell id="LJJnT18B9IQdikHcgreg-59" value="&amp;lt;&amp;lt;Include&amp;gt;&amp;gt;" style="endArrow=open;endSize=12;dashed=1;html=1;rounded=0;fontSize=12;curved=1;entryX=0;entryY=0.5;entryDx=0;entryDy=0;exitX=1;exitY=0.5;exitDx=0;exitDy=0;" parent="1" source="LJJnT18B9IQdikHcgreg-22" edge="1">
                    <mxGeometry width="160" relative="1" as="geometry">
                        <mxPoint x="-3120" y="-1300" as="sourcePoint"/>
                        <mxPoint x="-2830" y="-1289" as="targetPoint"/>
                    </mxGeometry>
                </mxCell>
                <mxCell id="LJJnT18B9IQdikHcgreg-60" value="&amp;lt;&amp;lt;Include&amp;gt;&amp;gt;" style="endArrow=open;endSize=12;dashed=1;html=1;rounded=0;fontSize=12;curved=1;entryX=0;entryY=0.5;entryDx=0;entryDy=0;" parent="1" edge="1">
                    <mxGeometry x="0.3382" y="15" width="160" relative="1" as="geometry">
                        <mxPoint x="-3260" y="-1390" as="sourcePoint"/>
                        <mxPoint x="-3140" y="-1509" as="targetPoint"/>
                        <mxPoint as="offset"/>
                    </mxGeometry>
                </mxCell>
                <mxCell id="LJJnT18B9IQdikHcgreg-61" value="&amp;lt;&amp;lt;Include&amp;gt;&amp;gt;" style="endArrow=open;endSize=12;dashed=1;html=1;rounded=0;fontSize=12;curved=1;entryX=0;entryY=0.5;entryDx=0;entryDy=0;exitX=0.985;exitY=0.695;exitDx=0;exitDy=0;exitPerimeter=0;" parent="1" source="LJJnT18B9IQdikHcgreg-23" target="LJJnT18B9IQdikHcgreg-28" edge="1">
                    <mxGeometry width="160" relative="1" as="geometry">
                        <mxPoint x="-3220" y="-1180" as="sourcePoint"/>
                        <mxPoint x="-2930" y="-1169" as="targetPoint"/>
                    </mxGeometry>
                </mxCell>
                <mxCell id="LJJnT18B9IQdikHcgreg-62" value="&amp;lt;&amp;lt;Include&amp;gt;&amp;gt;" style="endArrow=open;endSize=12;dashed=1;html=1;rounded=0;fontSize=12;curved=1;entryX=0;entryY=0;entryDx=0;entryDy=0;exitX=1;exitY=1;exitDx=0;exitDy=0;" parent="1" source="LJJnT18B9IQdikHcgreg-23" target="LJJnT18B9IQdikHcgreg-30" edge="1">
                    <mxGeometry width="160" relative="1" as="geometry">
                        <mxPoint x="-3240" y="-1200" as="sourcePoint"/>
                        <mxPoint x="-2950" y="-1189" as="targetPoint"/>
                    </mxGeometry>
                </mxCell>
                <mxCell id="LJJnT18B9IQdikHcgreg-63" value="&amp;lt;&amp;lt;Include&amp;gt;&amp;gt;" style="endArrow=open;endSize=12;dashed=1;html=1;rounded=0;fontSize=12;curved=1;entryX=0.388;entryY=-0.048;entryDx=0;entryDy=0;exitX=0.5;exitY=1;exitDx=0;exitDy=0;entryPerimeter=0;" parent="1" source="LJJnT18B9IQdikHcgreg-23" target="LJJnT18B9IQdikHcgreg-29" edge="1">
                    <mxGeometry width="160" relative="1" as="geometry">
                        <mxPoint x="-3380" y="-1160" as="sourcePoint"/>
                        <mxPoint x="-3090" y="-1149" as="targetPoint"/>
                    </mxGeometry>
                </mxCell>
                <mxCell id="LJJnT18B9IQdikHcgreg-64" value="&amp;lt;&amp;lt;Include&amp;gt;&amp;gt;" style="endArrow=open;endSize=12;dashed=1;html=1;rounded=0;fontSize=12;curved=1;entryX=0.023;entryY=0.571;entryDx=0;entryDy=0;exitX=0.947;exitY=0.25;exitDx=0;exitDy=0;exitPerimeter=0;entryPerimeter=0;" parent="1" source="LJJnT18B9IQdikHcgreg-31" target="LJJnT18B9IQdikHcgreg-33" edge="1">
                    <mxGeometry width="160" relative="1" as="geometry">
                        <mxPoint x="-3010" y="-900" as="sourcePoint"/>
                        <mxPoint x="-2720" y="-889" as="targetPoint"/>
                    </mxGeometry>
                </mxCell>
                <mxCell id="LJJnT18B9IQdikHcgreg-65" value="&amp;lt;&amp;lt;Include&amp;gt;&amp;gt;" style="endArrow=open;endSize=12;dashed=1;html=1;rounded=0;fontSize=12;curved=1;" parent="1" source="LJJnT18B9IQdikHcgreg-31" target="LJJnT18B9IQdikHcgreg-32" edge="1">
                    <mxGeometry width="160" relative="1" as="geometry">
                        <mxPoint x="-3110" y="-980" as="sourcePoint"/>
                        <mxPoint x="-2820" y="-969" as="targetPoint"/>
                    </mxGeometry>
                </mxCell>
                <mxCell id="LJJnT18B9IQdikHcgreg-66" value="&amp;lt;&amp;lt;Include&amp;gt;&amp;gt;" style="endArrow=open;endSize=12;dashed=1;html=1;rounded=0;fontSize=12;curved=1;entryX=0;entryY=0;entryDx=0;entryDy=0;exitX=0.92;exitY=0.783;exitDx=0;exitDy=0;exitPerimeter=0;" parent="1" source="LJJnT18B9IQdikHcgreg-31" target="LJJnT18B9IQdikHcgreg-35" edge="1">
                    <mxGeometry width="160" relative="1" as="geometry">
                        <mxPoint x="-3100" y="-840" as="sourcePoint"/>
                        <mxPoint x="-2810" y="-829" as="targetPoint"/>
                    </mxGeometry>
                </mxCell>
                <mxCell id="LJJnT18B9IQdikHcgreg-67" value="&amp;lt;&amp;lt;Include&amp;gt;&amp;gt;" style="endArrow=open;endSize=12;dashed=1;html=1;rounded=0;fontSize=12;curved=1;exitX=0.45;exitY=1;exitDx=0;exitDy=0;exitPerimeter=0;entryX=0.595;entryY=0.014;entryDx=0;entryDy=0;entryPerimeter=0;" parent="1" source="LJJnT18B9IQdikHcgreg-20" target="LJJnT18B9IQdikHcgreg-21" edge="1">
                    <mxGeometry width="160" relative="1" as="geometry">
                        <mxPoint x="-3380" y="-1600" as="sourcePoint"/>
                        <mxPoint x="-3310" y="-1570" as="targetPoint"/>
                    </mxGeometry>
                </mxCell>
                <mxCell id="LJJnT18B9IQdikHcgreg-68" value="" style="endArrow=none;html=1;rounded=0;fontSize=12;startSize=8;endSize=8;curved=1;exitX=0;exitY=0.5;exitDx=0;exitDy=0;entryX=1;entryY=0.5;entryDx=0;entryDy=0;" parent="1" source="LJJnT18B9IQdikHcgreg-31" target="LJJnT18B9IQdikHcgreg-31" edge="1">
                    <mxGeometry width="50" height="50" relative="1" as="geometry">
                        <mxPoint x="-3220" y="-960" as="sourcePoint"/>
                        <mxPoint x="-3170" y="-1010" as="targetPoint"/>
                    </mxGeometry>
                </mxCell>
                <mxCell id="LJJnT18B9IQdikHcgreg-69" style="edgeStyle=none;curved=1;rounded=0;orthogonalLoop=1;jettySize=auto;html=1;exitX=0.5;exitY=1;exitDx=0;exitDy=0;fontSize=12;startSize=8;endSize=8;" parent="1" source="LJJnT18B9IQdikHcgreg-31" target="LJJnT18B9IQdikHcgreg-31" edge="1">
                    <mxGeometry relative="1" as="geometry"/>
                </mxCell>
                <mxCell id="pj7GMOqY83nSnU84BV5J-2" value="&lt;font style=&quot;font-size: 36px;&quot;&gt;HotelHub&lt;/font&gt;" style="text;html=1;align=center;verticalAlign=middle;resizable=0;points=[];autosize=1;strokeColor=none;fillColor=none;" parent="1" vertex="1">
                    <mxGeometry x="-3220" y="-2375" width="170" height="60" as="geometry"/>
                </mxCell>
                <mxCell id="ns3GjmPQzEhzOMilLFsN-1" value="" style="endArrow=none;html=1;rounded=0;fontSize=12;startSize=8;endSize=8;curved=1;" edge="1" parent="1" target="LJJnT18B9IQdikHcgreg-16">
                    <mxGeometry width="50" height="50" relative="1" as="geometry">
                        <mxPoint x="-3670" y="-1700" as="sourcePoint"/>
                        <mxPoint x="-3442" y="-1999" as="targetPoint"/>
                    </mxGeometry>
                </mxCell>
            </root>
        </mxGraphModel>
    </diagram>
</mxfile>